<svg xmlns="http://www.w3.org/2000/svg" viewBox="0 0 24 24" fill="currentColor">
  <path d="M19.5 18c.8 0 1.5.7 1.5 1.5s-.7 1.5-1.5 1.5-1.5-.7-1.5-1.5.7-1.5 1.5-1.5zm-15 0c.8 0 1.5.7 1.5 1.5S5.3 21 4.5 21 3 20.3 3 19.5 3.7 18 4.5 18zm13.5-3c-.6 0-1.1.2-1.5.6l-2.5-1.3c-.1-.1-.3-.1-.5 0l-2.5 1.3c-.4-.4-1-.6-1.5-.6-1.4 0-2.5 1.1-2.5 2.5S8.6 22 10 22c.6 0 1.1-.2 1.5-.6l2.5 1.3c.1.1.3.1.5 0l2.5-1.3c.4.4 1 .6 1.5.6 1.4 0 2.5-1.1 2.5-2.5s-1.1-2.5-2.5-2.5zM18 3c-1.1 0-2 .9-2 2v8c0 1.1.9 2 2 2s2-.9 2-2V5c0-1.1-.9-2-2-2zm-6 2c-1.1 0-2 .9-2 2v6c0 1.1.9 2 2 2s2-.9 2-2V7c0-1.1-.9-2-2-2zM6 9c-1.1 0-2 .9-2 2v4c0 1.1.9 2 2 2s2-.9 2-2v-4c0-1.1-.9-2-2-2z"/>
</svg>
