<svg xmlns="http://www.w3.org/2000/svg" viewBox="0 0 212 189" fill="none">
  <g clip-path="url(#a)">
    <path fill="#E2761B" d="m172.894 5.322-63.03 46.59 11.723-27.6L172.894 5.32Z"/>
    <path fill="#E4761B" d="m39.106 5.322 61.89 45.19-11.723-27.6L39.106 5.32ZM158.2 128.613l-17.5 26.8 37.5 10.3 10.7-35.9-30.7-1.2ZM5.1 129.813l10.7 35.9 37.5-10.3-17.5-26.8-30.7 1.2Z"/>
    <path fill="#E4761B" d="m58.106 79.723-10.5 16 37.5 1.7-1.3-39.1-25.7 21.4ZM153.894 79.723l-26.4-22.1-.9 41.8 37.5-1.7-10.2-18ZM53.206 155.413l22.5-11-19.4-15.1-3.1 26.1ZM136.794 144.313l-19.4 15.1 22.5 11 3.1-26.1Z"/>
    <path fill="#C0AD9E" d="m136.794 144.313-22.5-11 16.3 24.8.1 3.5 6.1-17.3ZM75.706 133.313l-3.1 26.1 6.1 17.3.1-3.5 16.3-24.8-19.4-15.1Z"/>
    <path fill="#CD6116" d="m91.706 177.613-8.1-5.7 5.7-4.5 2.4 10.2ZM120.294 171.913l-8.1 5.7 2.4-10.2 5.7 4.5Z"/>
    <path fill="#E4751F" d="m136.794 144.313-6.1 17.3 4.4 30.5.1 3.5 19.4-32.8-17.8-18.5ZM75.706 155.413l-19.5 32.8.1-3.5 4.4-30.5-6.1-17.3-17.8 18.5 37.9-10ZM78.606 95.723l-11.2-16.8 26.4 1.9-.5 14.2-14.7.7Z"/>
    <path fill="#F6851B" d="m78.606 95.723 14.7-.7-.5 14.2-14.2 4.2v-17.7ZM133.394 95.023l-14.7.7v17.7l-14.2-4.2-.5-14.2 29.4-3.2Z"/>
    <path fill="#C0AD9E" d="m133.394 95.023-29.4 3.2.3 7.3 1.3 14.2 14.2 4.2 13.6-10.7v-18Z"/>
    <path fill="#161616" d="m118.694 95.723-14.7 17.7v17.7l.5-23.9 14.2-11.5Z"/>
    <path fill="#763D16" d="m78.606 95.023-14.2 11.5.5 23.9v-17.7l13.7-17.7Z"/>
    <path fill="#F6851B" d="m67.406 67.523 11.2 16.8-13.7 17.7-16.7-13.4 19.2-21.1Z"/>
    <path fill="#F6851B" d="m144.594 67.523 19.2 21.1-16.7 13.4-13.7-17.7 11.2-16.8Z"/>
    <path fill="#763D16" d="m118.694 95.723 1.3-14.2-1.3-3.8-14.7 1.1 14.7 17Z"/>
    <path fill="#CD6116" d="M91.706 95.723 78.606 78.723l-11.2-16.8 25.7 21.4-14.7 11.5 22.5 11 6.1-26.9-14.7-1.1-1.3 14.2 1.3 3.8-13.7-11.5Z"/>
    <path fill="#E2761B" d="m172.894 5.322-66.3 50.1 11.7 16.8 25.7-21.4 19.2 21.1-6.1 35.9 21.3-32.8L172.894 5.32ZM39.106 5.322 5.1 94.828l21.3 32.8-6.1-35.9 19.2-21.1 25.7 21.4 11.7-16.8-66.3-50.1Z"/>
    <path fill="#F6851B" d="m158.2 128.613 4.4-30.5-1.3-1.9h-19.2l-3.9 30.5 7.8 19.5 11.7-3.2 8.5-15.9ZM50.4 95.213l-1.3 1.9 4.4 30.5 8.5 15.9 11.7 3.2 7.8-19.5-3.9-30.5H51.7l-1.3 1.9Z"/>
    <path fill="#FFFFFF" d="M102.006 122.023-1.194 94.828l5.3-44.8 97.8 72.6-5.3 3.2-13.7-11.5-37.9 10-14.2-10.7-13.7 11.5-14.2-4.2-13.7 10.7-5.3-3.2 8.5-6.4 9.6 2.1 15.2-11.5 14.2 4.2 13.7-10.7 14.2 10.7 13.7-10.7 14.2 4.2 15.2-11.5 9.6-2.1 8.5 6.4-5.3 3.2-13.7-10.7-14.2 4.2-13.7 10.7-14.2-10.7-13.7 10.7-14.2-4.2-13.7 10.7Z"/>
  </g>
  <defs>
    <clipPath id="a">
      <path fill="#fff" d="M0 0h212v188.5H0z"/>
    </clipPath>
  </defs>
</svg>
